# xmcd CD database file
#
# Track frame offsets:
#	150
#	17587
#	35905
#	55292
#	70382
#	90255
#	106100
#	124242
#	144180
#	162602
#
# Disc length: 2441 seconds
#
# Revision: 0
# Processed by: cddbd v1.5.1PL0 Copyright (c) Steve Scherf et al.
# Submitted via: CDex 1.51
#
DISCID=8409870a
DTITLE=ＮＧ騎士　ラムネ＆４０ - ＮＧ騎士　ラムネ＆４０
DYEAR=1992
DGENRE=Anime
TTITLE0=虹の空と勇者の翼
TTITLE1=アドレナリンは最高潮！
TTITLE2=センチなモナリザ
TTITLE3=COOL・な・BURNING BOY
TTITLE4=ロンリー・ナイト・ヨコハマ
TTITLE5=乙女心はウフフ
TTITLE6=アンタとワテはチャンバラバンバラバ
TTITLE7=ひみつのニュアンス
TTITLE8=完全無欠のオブザーバー
TTITLE9=朝まで　ガンバって！
EXTD=YEAR: 1992
EXTT0=
EXTT1=
EXTT2=
EXTT3=
EXTT4=
EXTT5=
EXTT6=
EXTT7=
EXTT8=
EXTT9=
PLAYORDER=
